<svg width="55" height="56" viewBox="0 0 55 56" fill="none" xmlns="http://www.w3.org/2000/svg">
<g id="carbon:education">
<path id="Vector" d="M44.6875 51.5728H41.25V46.4165C41.2473 44.1381 40.341 41.9539 38.7299 40.3428C37.1189 38.7318 34.9346 37.8255 32.6562 37.8228H22.3438C20.0654 37.8255 17.8811 38.7318 16.2701 40.3428C14.659 41.9539 13.7527 44.1381 13.75 46.4165V51.5728H10.3125V46.4165C10.317 43.227 11.5861 40.1695 13.8414 37.9141C16.0967 35.6588 19.1543 34.3898 22.3438 34.3853H32.6562C35.8457 34.3898 38.9033 35.6588 41.1586 37.9141C43.4139 40.1695 44.683 43.227 44.6875 46.4165V51.5728ZM8.59375 10.3228C8.13791 10.3228 7.70074 10.5038 7.37841 10.8262C7.05608 11.1485 6.875 11.5857 6.875 12.0415V27.5103H10.3125V12.0415C10.3125 11.5857 10.1314 11.1485 9.80909 10.8262C9.48676 10.5038 9.04959 10.3228 8.59375 10.3228Z" fill="#E6E6E6"/>
<path id="Vector_2" d="M6.875 3.44775V6.88525H15.4688V18.9165C15.4688 22.1074 16.7363 25.1676 18.9926 27.4239C21.2489 29.6802 24.3091 30.9478 27.5 30.9478C30.6909 30.9478 33.7511 29.6802 36.0074 27.4239C38.2637 25.1676 39.5312 22.1074 39.5312 18.9165V6.88525H48.125V3.44775H6.875ZM18.9062 6.88525H36.0938V12.0415H18.9062V6.88525ZM27.5 27.5103C25.2208 27.5103 23.0349 26.6048 21.4233 24.9932C19.8117 23.3816 18.9062 21.1957 18.9062 18.9165V15.479H36.0938V18.9165C36.0938 21.1957 35.1883 23.3816 33.5767 24.9932C31.9651 26.6048 29.7792 27.5103 27.5 27.5103Z" fill="#E6E6E6"/>
</g>
</svg>
