<svg width="55" height="56" viewBox="0 0 55 56" fill="none" xmlns="http://www.w3.org/2000/svg">
<g id="game-icons:burning-passion">
<path id="Vector" d="M2.13159 2.02441V2.3166C9.0356 7.79039 12.37 14.7611 11.7391 21.572C10.6 15.6634 7.25357 10.3142 2.1317 6.65032V9.17796C8.06611 14.031 10.9843 21.4578 9.97027 29.0779C9.92752 29.3284 9.88863 29.5789 9.85598 29.8298C9.84685 29.8849 9.83879 29.9394 9.82912 29.9944H9.83589C9.13195 35.7734 11.039 41.6567 15.1633 46.7554C15.8513 47.9449 16.6652 49.0976 17.6005 50.2065C10.2316 43.694 6.34607 36.0539 5.7169 28.1985C4.52323 37.1147 7.34005 45.7308 15.4586 52.9292H20.2489C20.2525 52.9322 20.2554 52.9359 20.259 52.9392H34.2744C34.2778 52.9359 34.2808 52.9322 34.2843 52.929H38.9705C47.0893 45.7308 49.9061 37.1146 48.7126 28.1983C48.0949 35.9084 44.3409 43.4114 37.2351 49.8438C38.2619 48.5814 39.134 47.2637 39.8433 45.9029C43.5064 41.0066 45.1711 35.4534 44.5063 29.9943C44.5059 29.9921 44.5066 29.9898 44.5063 29.9875C44.4628 29.6319 44.4085 29.2779 44.3452 28.9234C43.3392 20.9477 46.6341 13.2024 53.1873 8.41924V5.9857C47.5208 9.64589 43.819 15.2774 42.603 21.5451C41.9746 14.6478 45.407 7.58887 52.4991 2.08822L52.4486 2.02441H49.4341C41.6939 8.93626 38.7085 18.1022 41.646 26.5234C41.9529 27.4023 42.192 28.3034 42.3611 29.2189C42.3616 29.2235 42.3639 29.2278 42.3643 29.2323C42.4116 29.6013 42.4645 29.971 42.5289 30.3403H42.5321C42.7796 32.4214 42.6524 34.5183 42.1663 36.5875C42.1616 33.5393 41.4382 30.4484 39.9711 27.4499C35.6677 18.6561 37.7401 9.03509 45.6006 2.02452H42.2673C36.8806 7.03285 35.1427 11.8601 36.097 18.2553C33.7887 11.8997 34.0114 7.12856 38.3196 2.02452H16.328C20.6361 7.12856 20.8588 11.8998 18.5504 18.2553C19.5048 11.86 17.7699 7.03296 12.3836 2.02452H8.93279C16.7933 9.03509 18.8656 18.6561 14.5623 27.45C12.962 30.7208 12.2506 34.101 12.3871 37.4166C11.7268 35.0805 11.526 32.6997 11.8063 30.3403C11.8708 29.9712 11.927 29.6012 11.9742 29.2324C12.1437 28.3124 12.3838 27.4067 12.6925 26.5236C15.63 18.1024 12.6445 8.93647 4.90437 2.02463H2.13159V2.02441ZM27.2952 4.13934C29.0569 4.13934 30.1981 4.8032 31.0249 5.92179C31.8513 7.04037 32.3104 8.68532 32.3104 10.5409C32.3104 12.5458 31.5707 14.6831 30.5952 15.8583L29.5075 17.171L31.1826 17.4866C32.5277 17.7394 33.5158 18.4291 34.3451 19.5276C35.1741 20.626 35.803 22.1444 36.2449 23.8983C37.0529 27.1041 37.2262 31.044 37.252 34.57H34.748L34.6605 26.9968L32.6532 27.0202L32.757 36.3054L31.9245 48.2964C36.9795 43.6053 39.6578 38.1663 40.1054 32.5792C40.9876 39.1682 38.9077 45.5349 32.9082 50.8543H31.7463V50.8779H28.2081V35.8688H26.2008V50.8777H22.8404V50.8541H21.8032C15.8035 45.5346 13.7204 39.168 14.6025 32.579C15.0462 38.1176 17.6812 43.5119 22.6524 48.1753L21.8903 37.1481L22.1691 27.037L20.1616 26.98L19.9535 34.5699H17.3351C17.3609 31.0437 17.5376 27.1039 18.3455 23.8981C18.7877 22.1443 19.4165 20.6258 20.2458 19.5273C21.0749 18.4289 22.0629 17.7392 23.4079 17.4863L25.083 17.1708L23.9954 15.8581C23.0197 14.6829 22.2799 12.5457 22.2799 10.5407C22.2799 8.68511 22.7392 7.04016 23.5657 5.92157C24.3922 4.80331 25.5337 4.13912 27.2954 4.13912L27.2952 4.13934Z" fill="#E6E6E6"/>
</g>
</svg>
