<svg width="55" height="56" viewBox="0 0 55 56" fill="none" xmlns="http://www.w3.org/2000/svg">
<g id="game-icons:skills">
<path id="Vector" d="M12.7939 2.6958V2.70654C10.1084 3.05029 7.73438 6.14404 7.73438 10.0972C7.73438 12.2886 8.49707 14.2222 9.61426 15.5649L10.71 16.8755L9.02344 17.187C7.55176 17.4663 6.4668 18.2505 5.56445 19.4966C4.65137 20.7319 3.96387 22.4507 3.48047 24.4165C2.59961 28.0259 2.41699 32.4409 2.39551 36.2866H7.12207L8.40039 53.3023H18.7451L19.873 36.2866H24.374C24.374 32.398 24.3418 27.9292 23.5361 24.2876C23.1064 22.3003 22.4404 20.5923 21.5273 19.3569C20.6035 18.1323 19.4648 17.3481 17.8213 17.1011L16.1025 16.8325L17.1875 15.479C18.2617 14.1362 18.9814 12.2349 18.9814 10.0972C18.9814 5.88623 16.3174 2.70654 13.3525 2.70654C13.041 2.70654 12.8477 2.6958 12.7939 2.6958ZM47.2656 3.55518C45.418 3.55518 43.9355 5.03438 43.9355 6.88525C43.9355 8.73613 45.418 10.2153 47.2656 10.2153C49.1133 10.2153 50.5957 8.73613 50.5957 6.88525C50.5957 5.03438 49.1133 3.55518 47.2656 3.55518ZM33.4082 5.91846V11.0747H22.3438V13.0083H33.4082V29.981H27.5V31.9146H33.4082V43.731H22.3438V45.6646H33.4082V49.1021H42.0879C42.0342 48.7905 42.002 48.4683 42.002 48.1353C42.002 47.8023 42.0342 47.48 42.0879 47.1685H35.3418V31.9146H42.0879C42.0342 31.603 42.002 31.2808 42.002 30.9478C42.002 30.6147 42.0342 30.2925 42.0879 29.981H35.3418V7.85205H42.0879C42.0342 7.53838 42.002 7.21504 42.002 6.88525C42.002 6.55547 42.0342 6.23213 42.0879 5.91846H33.4082ZM47.2656 27.6177C45.418 27.6177 43.9355 29.1001 43.9355 30.9478C43.9355 32.7954 45.418 34.2778 47.2656 34.2778C49.1133 34.2778 50.5957 32.7954 50.5957 30.9478C50.5957 29.1001 49.1133 27.6177 47.2656 27.6177ZM47.2656 44.8052C45.418 44.8052 43.9355 46.2876 43.9355 48.1353C43.9355 49.9829 45.418 51.4653 47.2656 51.4653C49.1133 51.4653 50.5957 49.9829 50.5957 48.1353C50.5957 46.2876 49.1133 44.8052 47.2656 44.8052Z" fill="#E6E6E6"/>
</g>
</svg>
